<svg width="17" height="16" viewBox="0 0 17 16" fill="none" xmlns="http://www.w3.org/2000/svg">
<path d="M14.919 13.1684L11.9089 10.2281C12.6336 9.28574 13.0248 8.13865 13.0235 6.96C13.0235 3.94938 10.516 1.5 7.43387 1.5C4.35177 1.5 1.84424 3.94938 1.84424 6.96C1.84424 9.97063 4.35177 12.42 7.43387 12.42C8.6405 12.4213 9.81482 12.0391 10.7796 11.3313L13.7897 14.2716C13.9421 14.4046 14.1408 14.4756 14.3451 14.47C14.5494 14.4645 14.7438 14.3827 14.8883 14.2415C15.0328 14.1004 15.1165 13.9105 15.1222 13.711C15.1279 13.5114 15.0552 13.3173 14.919 13.1684ZM3.44128 6.96C3.44128 6.18865 3.67544 5.43463 4.11415 4.79328C4.55286 4.15192 5.17642 3.65205 5.90597 3.35687C6.63552 3.06169 7.4383 2.98446 8.21278 3.13494C8.98727 3.28542 9.69868 3.65686 10.2571 4.20228C10.8154 4.74771 11.1957 5.44262 11.3497 6.19915C11.5038 6.95567 11.4247 7.73983 11.1225 8.45247C10.8204 9.1651 10.3086 9.77419 9.65203 10.2027C8.99546 10.6313 8.22353 10.86 7.43387 10.86C6.37536 10.8588 5.36056 10.4475 4.61208 9.71635C3.8636 8.98522 3.44255 7.99396 3.44128 6.96Z" fill="#4B5563"/>
</svg>
