<svg width="17" height="16" viewBox="0 0 17 16" fill="none" xmlns="http://www.w3.org/2000/svg">
<path d="M15.0862 2.21444C14.7133 1.82942 14.2705 1.52401 13.7831 1.31563C13.2957 1.10725 12.7734 1 12.2458 1C11.7183 1 11.1959 1.10725 10.7085 1.31563C10.2211 1.52401 9.77833 1.82942 9.40538 2.21444L8.63138 3.0131L7.85739 2.21444C7.10406 1.4371 6.08233 1.0004 5.01696 1.0004C3.9516 1.0004 2.92987 1.4371 2.17654 2.21444C1.42321 2.99177 1 4.04606 1 5.14537C1 6.24469 1.42321 7.29898 2.17654 8.07631L2.95054 8.87497L8.63138 14.7368L14.3122 8.87497L15.0862 8.07631C15.4593 7.69148 15.7553 7.23456 15.9573 6.73166C16.1592 6.22876 16.2632 5.68973 16.2632 5.14537C16.2632 4.60101 16.1592 4.06198 15.9573 3.55908C15.7553 3.05618 15.4593 2.59927 15.0862 2.21444Z" fill="white"/>
<path d="M15.0862 2.21444C14.7133 1.82942 14.2705 1.52401 13.7831 1.31563C13.2957 1.10725 12.7734 1 12.2458 1C11.7183 1 11.1959 1.10725 10.7085 1.31563C10.2211 1.52401 9.77833 1.82942 9.40538 2.21444L8.63138 3.0131L7.85739 2.21444C7.10406 1.4371 6.08233 1.0004 5.01696 1.0004C3.9516 1.0004 2.92987 1.4371 2.17654 2.21444C1.42321 2.99177 1 4.04606 1 5.14537C1 6.24469 1.42321 7.29898 2.17654 8.07631L2.95054 8.87497L8.63138 14.7368L14.3122 8.87497L15.0862 8.07631C15.4593 7.69148 15.7553 7.23456 15.9573 6.73166C16.1592 6.22876 16.2632 5.68973 16.2632 5.14537C16.2632 4.60101 16.1592 4.06198 15.9573 3.55908C15.7553 3.05618 15.4593 2.59927 15.0862 2.21444ZM15.0862 2.21444V2.21444Z" stroke="#111827" stroke-linejoin="round"/>
</svg>
