<svg
    width="35"
    height="35"
    viewBox="0 0 35 35"
    fill="none"
    xmlns="http://www.w3.org/2000/svg"
    >
    <g clip-path="url(#clip0_2360_44)">
      <path
        d="M25.0609 29.9706C24.8327 29.9715 24.6076 29.9177 24.4044 29.8136L17.1259 26.0031L9.84742 29.8136C9.61107 29.9379 9.3446 29.9934 9.07829 29.9737C8.81198 29.9541 8.55652 29.8601 8.34095 29.7026C8.12538 29.545 7.95834 29.3301 7.85884 29.0823C7.75933 28.8345 7.73133 28.5637 7.77804 28.3008L9.20519 20.2659L3.32531 14.5573C3.14186 14.3742 3.01172 14.1446 2.94886 13.8932C2.886 13.6418 2.8928 13.378 2.96852 13.1301C3.05123 12.8765 3.20339 12.6511 3.40772 12.4796C3.61206 12.308 3.86038 12.1972 4.12451 12.1597L12.2593 10.9751L15.8415 3.6538C15.9583 3.41251 16.1408 3.20901 16.368 3.06663C16.5951 2.92424 16.8578 2.84872 17.1259 2.84872C17.394 2.84872 17.6567 2.92424 17.8839 3.06663C18.111 3.20901 18.2935 3.41251 18.4104 3.6538L22.0353 10.9608L30.1701 12.1454C30.4343 12.1829 30.6826 12.2938 30.8869 12.4653C31.0913 12.6368 31.2434 12.8622 31.3261 13.1159C31.4019 13.3637 31.4087 13.6275 31.3458 13.8789C31.2829 14.1304 31.1528 14.3599 30.9694 14.543L25.0895 20.2516L26.5166 28.2865C26.5676 28.5541 26.5409 28.8307 26.4397 29.0835C26.3386 29.3364 26.1672 29.5551 25.9458 29.7137C25.6873 29.8948 25.3762 29.9851 25.0609 29.9706Z"
        fill="#FBBF24"
      />
    </g>
    <defs>
      <clipPath id="clip0_2360_44">
        <rect width="34.2518" height="34.2518" fill="white" />
      </clipPath>
    </defs>
</svg>