<svg width="16" height="14" viewBox="0 0 16 14" fill="none" xmlns="http://www.w3.org/2000/svg">
<path d="M14.0862 1.21444C13.7133 0.829425 13.2705 0.524006 12.7831 0.315629C12.2957 0.107252 11.7734 0 11.2458 0C10.7183 0 10.1959 0.107252 9.7085 0.315629C9.22113 0.524006 8.77833 0.829425 8.40538 1.21444L7.63138 2.0131L6.85739 1.21444C6.10406 0.437104 5.08233 0.000402919 4.01696 0.000402927C2.9516 0.000402935 1.92987 0.437104 1.17654 1.21444C0.423215 1.99177 7.93759e-09 3.04606 0 4.14537C-7.93759e-09 5.24469 0.423215 6.29898 1.17654 7.07631L1.95054 7.87497L7.63138 13.7368L13.3122 7.87497L14.0862 7.07631C14.4593 6.69148 14.7553 6.23456 14.9573 5.73166C15.1592 5.22876 15.2632 4.68973 15.2632 4.14537C15.2632 3.60101 15.1592 3.06198 14.9573 2.55908C14.7553 2.05618 14.4593 1.59927 14.0862 1.21444Z" fill="#111827"/>
</svg>
